HIERARCHY
ROOT Hips
{
	OFFSET 51.063000 -15.537716 96.807098
	CHANNELS 6 Xposition Yposition Zposition Xrotation Yrotation Zrotation
	JOINT spine
	{
		OFFSET 0.000000 -0.458068 7.965683
		CHANNELS 3 Xrotation Yrotation Zrotation
		JOINT spine1
		{
			OFFSET 0.000000 -0.000002 10.243103
			CHANNELS 3 Xrotation Yrotation Zrotation
			JOINT spine2
			{
				OFFSET 0.000000 -0.000001 9.814751
				CHANNELS 3 Xrotation Yrotation Zrotation
				JOINT Neck
				{
					OFFSET 0.000000 -1.201385 25.198601
					CHANNELS 3 Xrotation Yrotation Zrotation
					JOINT Head
					{
						OFFSET 0.000000 0.000000 7.613144
						CHANNELS 3 Xrotation Yrotation Zrotation
						End Site
						{
							OFFSET 0.000000 6.077326 18.428101
						}
					}
				}
				JOINT RightShoulder
				{
					OFFSET -4.132702 0.575449 10.599205
					CHANNELS 3 Xrotation Yrotation Zrotation
					JOINT RightArm
					{
						OFFSET 0.000000 -0.000003 13.901794
						CHANNELS 3 Xrotation Yrotation Zrotation
						JOINT RightArmRoll
						{
							OFFSET 0.000000 -0.000001 7.017883
							CHANNELS 3 Xrotation Yrotation Zrotation
							JOINT RightForeArm
							{
								OFFSET 0.000000 -0.000003 20.440598
								CHANNELS 3 Xrotation Yrotation Zrotation
								JOINT RightForeArmRoll
								{
									OFFSET 0.000000 -0.000002 7.875153
									CHANNELS 3 Xrotation Yrotation Zrotation
									JOINT RightHand
									{
										OFFSET 0.000000 -0.000002 15.803696
										CHANNELS 3 Xrotation Yrotation Zrotation
										End Site
										{
											OFFSET 0.000000 0.000000 0.100006
										}
									}
								}
							}
						}
					}
				}
				JOINT LeftShoulder
				{
					OFFSET 4.132702 0.575449 10.599205
					CHANNELS 3 Xrotation Yrotation Zrotation
					JOINT LeftArm
					{
						OFFSET 0.000000 -0.000003 13.901794
						CHANNELS 3 Xrotation Yrotation Zrotation
						JOINT LeftArmRoll
						{
							OFFSET 0.000000 -0.000001 7.017883
							CHANNELS 3 Xrotation Yrotation Zrotation
							JOINT LeftForeArm
							{
								OFFSET 0.000000 -0.000003 20.440598
								CHANNELS 3 Xrotation Yrotation Zrotation
								JOINT LeftForeArmRoll
								{
									OFFSET 0.000000 -0.000002 7.875168
									CHANNELS 3 Xrotation Yrotation Zrotation
									JOINT LeftHand
									{
										OFFSET 0.000000 -0.000002 15.803696
										CHANNELS 3 Xrotation Yrotation Zrotation
										End Site
										{
											OFFSET 0.000000 0.000000 0.100006
										}
									}
								}
							}
						}
					}
				}
			}
		}
	}
	JOINT RightUpLeg
	{
		OFFSET -7.060482 1.086101 -1.294701
		CHANNELS 3 Xrotation Yrotation Zrotation
		JOINT RightUpLegRoll
		{
			OFFSET 0.000000 -0.000003 18.530800
			CHANNELS 3 Xrotation Yrotation Zrotation
			JOINT RightLeg
			{
				OFFSET 0.000000 0.000003 -22.947601
				CHANNELS 3 Xrotation Yrotation Zrotation
				JOINT RightLegRoll
				{
					OFFSET 0.000000 -0.000003 23.022598
					CHANNELS 3 Xrotation Yrotation Zrotation
					JOINT RightFoot
					{
						OFFSET 0.000000 -0.000004 19.162506
						CHANNELS 3 Xrotation Yrotation Zrotation
						JOINT RightToeBase
						{
							OFFSET 0.000000 -0.000003 16.018799
							CHANNELS 3 Xrotation Yrotation Zrotation
							End Site
							{
								OFFSET 0.006790 0.894205 7.757812
							}
						}
					}
				}
			}
		}
	}
	JOINT LeftUpLeg
	{
		OFFSET 7.060482 1.086101 -1.294701
		CHANNELS 3 Xrotation Yrotation Zrotation
		JOINT LeftUpLegRoll
		{
			OFFSET 0.000000 -0.000003 18.530899
			CHANNELS 3 Xrotation Yrotation Zrotation
			JOINT LeftLeg
			{
				OFFSET 0.000000 -0.000004 22.947502
				CHANNELS 3 Xrotation Yrotation Zrotation
				JOINT LeftLegRoll
				{
					OFFSET 0.000000 -0.000004 23.235504
					CHANNELS 3 Xrotation Yrotation Zrotation
					JOINT LeftFoot
					{
						OFFSET 0.000000 -0.000004 18.949600
						CHANNELS 3 Xrotation Yrotation Zrotation
						JOINT LeftToeBase
						{
							OFFSET 0.000000 -0.000002 16.018799
							CHANNELS 3 Xrotation Yrotation Zrotation
							End Site
							{
								OFFSET -0.030430 0.894205 7.757812
							}
						}
					}
				}
			}
		}
	}
}
MOTION
Frames: 5
Frame Time: 0.041667
50.740894 -15.834915 96.918999 -3.921294 -1.301297 2.740578 -1.089549 -0.042515 0.045841 1.821903 -0.085469 0.096081 3.466984 -0.084312 0.097113 21.789786 13.568692 -4.708253 -4.221635 -16.613602 -3.164747 -10.347983 -16.988957 -8.910598 -147.807985 -164.933332 -66.116272 0.000000 0.000002 0.000000 81.025182 3.176697 7.687071 -0.000007 0.000005 -3.002344 -5.000233 -7.999143 0.000117 -11.931050 24.823441 12.059560 -138.915966 176.153584 78.183980 0.000002 -0.000001 0.000000 72.294615 -6.642905 -1.699467 -0.000010 -0.000008 3.003377 -5.000181 7.999551 -0.000044 5.155765 -173.081829 6.033735 -179.999991 0.000005 -1.239004 174.769829 -1.793513 -0.459153 -0.000008 -0.000002 0.072042 69.120913 6.933419 2.018578 25.456957 -7.355615 0.000001 3.877340 174.191243 -2.341062 -0.000020 -0.000004 -1.206440 -4.505968 1.875061 0.152524 -0.000006 0.000001 -0.041518 68.811977 -6.934087 -2.038760 25.456959 7.355612 0.000001 
50.728497 -15.839920 96.920097 -3.910179 -1.295399 2.721934 -1.094030 -0.043969 0.043971 1.812092 -0.088365 0.092086 3.457164 -0.087255 0.093155 21.652058 13.706098 -4.696512 -4.126718 -16.648928 -3.149039 -10.333109 -17.047232 -8.893973 -147.636861 -164.744600 -66.059322 0.000001 0.000000 0.000001 80.863825 3.183207 7.609196 -0.000005 0.000005 -3.002356 -5.000229 -7.999145 0.000117 -11.990277 24.985590 12.158582 -138.942672 176.100937 78.341532 -0.000002 0.000001 0.000000 72.065551 -6.679392 -1.648464 -0.000008 -0.000010 3.003382 -5.000181 7.999553 -0.000050 5.150794 -173.089739 6.027764 -179.999991 0.000005 -1.239005 174.779801 -1.794534 -0.459928 -0.000009 -0.000002 0.072049 69.115839 6.933404 2.017692 25.456955 -7.355615 0.000001 3.878529 174.182268 -2.349489 -0.000020 -0.000004 -1.206620 -4.502145 1.878699 0.152472 -0.000006 0.000002 -0.041513 68.813357 -6.934136 -2.038081 25.456953 7.355613 0.000001 
50.725296 -15.835616 96.923996 -3.898507 -1.289700 2.702348 -1.098652 -0.045464 0.042105 1.801902 -0.091339 0.088026 3.446975 -0.090279 0.089132 21.512405 13.837829 -4.680676 -4.030525 -16.674759 -3.130381 -10.317923 -17.108686 -8.877199 -147.466462 -164.548546 -66.010814 -0.000001 -0.000000 0.000001 80.699231 3.189164 7.528987 -0.000005 0.000007 -3.002353 -5.000228 -7.999144 0.000115 -12.053787 25.153543 12.264264 -138.963668 176.045571 78.499726 0.000002 0.000001 0.000001 71.816850 -6.720462 -1.595134 -0.000008 -0.000010 3.003370 -5.000179 7.999551 -0.000047 5.145628 -173.097662 6.022230 -179.999991 0.000005 -1.239004 174.790661 -1.794565 -0.459589 -0.000008 -0.000002 0.072056 69.110552 6.933379 2.016719 25.456953 -7.355614 -0.000000 3.879212 174.173294 -2.358374 -0.000020 -0.000004 -1.206790 -4.498554 1.883105 0.152420 -0.000006 0.000001 -0.041509 68.814654 -6.934210 -2.037316 25.456955 7.355612 0.000000 
50.710297 -15.847518 96.923500 -3.886329 -1.284101 2.682093 -1.103367 -0.046996 0.040233 1.791452 -0.094390 0.083896 3.436524 -0.093378 0.085038 21.370325 13.964465 -4.661327 -3.932664 -16.692803 -3.109253 -10.302628 -17.173802 -8.860673 -147.297551 -164.346523 -65.970816 -0.000001 -0.000001 -0.000000 80.532773 3.194470 7.446990 -0.000006 0.000005 -3.002363 -5.000233 -7.999144 0.000116 -12.120737 25.326278 12.375355 -138.979883 175.986668 78.657954 -0.000002 -0.000001 0.000000 71.551655 -6.765591 -1.539863 -0.000008 -0.000011 3.003361 -5.000180 7.999552 -0.000048 5.140205 -173.104574 6.017086 -179.999991 0.000005 -1.240002 174.802122 -1.796584 -0.460407 -0.000008 -0.000002 0.072063 69.105047 6.933380 2.015564 25.456955 -7.355614 0.000002 3.879385 174.163321 -2.367674 -0.000020 -0.000003 -1.206980 -4.495166 1.888089 0.152368 -0.000006 0.000001 -0.041504 68.815727 -6.934275 -2.036660 25.456953 7.355610 0.000001 
50.704796 -15.860714 96.923798 -3.873697 -1.278503 2.661437 -1.108158 -0.048566 0.038345 1.780853 -0.097513 0.079687 3.425925 -0.096551 0.080866 21.225257 14.086529 -4.638986 -3.832737 -16.704353 -3.086100 -10.287462 -17.243356 -8.844824 -147.130676 -164.139814 -65.938264 0.000000 -0.000001 -0.000000 80.365502 3.199169 7.363682 -0.000005 0.000008 -3.002362 -5.000233 -7.999143 0.000113 -12.190381 25.502670 12.490652 -138.992068 175.923502 78.816162 -0.000003 -0.000000 0.000000 71.272860 -6.814246 -1.483131 -0.000011 -0.000008 3.003359 -5.000185 7.999550 -0.000048 5.134478 -173.111500 6.012135 -179.999991 0.000004 -1.240002 174.813924 -1.797611 -0.460127 -0.000009 -0.000001 0.072071 69.099467 6.933410 2.014519 25.456953 -7.355616 -0.000001 3.878983 174.154333 -2.377149 -0.000020 -0.000004 -1.207160 -4.491958 1.893450 0.152317 -0.000006 0.000001 -0.041500 68.816704 -6.934369 -2.035916 25.456953 7.355612 0.000002 
